# xmcd CD database file
# Copyright (C) 1993-1998 Ti Kan
#
# Track frame offsets:
#	150
#	22680
#	46435
#	69572
#	97075
#	120052
#	144262
#	164650
#	181517
#	208327
#	226305
#	241165
#	258430
#
# Disc length: 3518 seconds
#
# Revision: 1
# Processed by: cddbd v1.4b41PL1 Copyright (c) Steve Scherf et al.
# Submitted via: xmcd 2.1 PL2
#
DISCID=a50dbc0d
DTITLE=Chris "Hammer" Smith - Livin' On My Own
DYEAR=1900
DGENRE=
TTITLE0=Down In South Central
TTITLE1=I'm The One
TTITLE2=Get Tough
TTITLE3=You And Me
TTITLE4=Low Down Dirty Blues
TTITLE5=It Don't Make Sense
TTITLE6=Outta Here
TTITLE7='til I Met You
TTITLE8=Should've Done Her Better
TTITLE9=Jump
TTITLE10=Set The World On Fire
TTITLE11=Livin' On My Own
TTITLE12=Sonata In A Minor
EXTD=
EXTT0=
EXTT1=
EXTT2=
EXTT3=
EXTT4=
EXTT5=
EXTT6=
EXTT7=
EXTT8=
EXTT9=
EXTT10=
EXTT11=
EXTT12=
PLAYORDER=
